<svg xmlns="http://www.w3.org/2000/svg" version="1.1" xmlns:xlink="http://www.w3.org/1999/xlink" xmlns:svgjs="http://svgjs.dev/svgjs" width="1440" height="390" preserveAspectRatio="none" viewBox="0 0 1440 390"><g mask="url(&quot;#SvgjsMask1064&quot;)" fill="none"><rect width="1440" height="390" x="0" y="0" fill="rgba(0, 0, 0, 1)"></rect><path d="M-73.36 359.39L-73.36 359.39" stroke="rgba(72, 1, 76, 1)" stroke-width="1.5"></path><path d="M-73.36 359.39L52.29 349.33" stroke="rgba(72, 1, 76, 1)" stroke-width="1.5"></path><path d="M-73.36 359.39L-47.97 535.78" stroke="rgba(72, 1, 76, 1)" stroke-width="1.5"></path><path d="M-73.36 359.39L87.64 503.13" stroke="rgba(72, 1, 76, 1)" stroke-width="1.5"></path><path d="M-47.97 535.78L-47.97 535.78" stroke="rgba(72, 1, 76, 1)" stroke-width="1.5"></path><path d="M-47.97 535.78L87.64 503.13" stroke="rgba(72, 1, 76, 1)" stroke-width="1.5"></path><path d="M-47.97 535.78L52.29 349.33" stroke="rgba(72, 1, 76, 1)" stroke-width="1.5"></path><path d="M-47.97 535.78L192.13 550.32" stroke="rgba(72, 1, 76, 1)" stroke-width="1.5"></path><path d="M52.29 349.33L52.29 349.33" stroke="rgba(72, 1, 76, 1)" stroke-width="1.5"></path><path d="M52.29 349.33L87.64 503.13" stroke="rgba(72, 1, 76, 1)" stroke-width="1.5"></path><path d="M52.29 349.33L222.19 366.66" stroke="rgba(72, 1, 76, 1)" stroke-width="1.5"></path><path d="M52.29 349.33L192.13 550.32" stroke="rgba(72, 1, 76, 1)" stroke-width="1.5"></path><path d="M52.29 349.33L383.19 386" stroke="rgba(72, 1, 76, 1)" stroke-width="1.5"></path><path d="M87.64 503.13L87.64 503.13" stroke="rgba(72, 1, 76, 1)" stroke-width="1.5"></path><path d="M87.64 503.13L192.13 550.32" stroke="rgba(72, 1, 76, 1)" stroke-width="1.5"></path><path d="M222.19 366.66L222.19 366.66" stroke="rgba(72, 1, 76, 1)" stroke-width="1.5"></path><path d="M222.19 366.66L383.19 386" stroke="rgba(72, 1, 76, 1)" stroke-width="1.5"></path><path d="M222.19 366.66L192.13 550.32" stroke="rgba(72, 1, 76, 1)" stroke-width="1.5"></path><path d="M222.19 366.66L87.64 503.13" stroke="rgba(72, 1, 76, 1)" stroke-width="1.5"></path><path d="M222.19 366.66L369.08 236.67" stroke="rgba(72, 1, 76, 1)" stroke-width="1.5"></path><path d="M192.13 550.32L192.13 550.32" stroke="rgba(72, 1, 76, 1)" stroke-width="1.5"></path><path d="M192.13 550.32L375.42 534.2" stroke="rgba(72, 1, 76, 1)" stroke-width="1.5"></path><path d="M369.08 236.67L369.08 236.67" stroke="rgba(72, 1, 76, 1)" stroke-width="1.5"></path><path d="M369.08 236.67L383.19 386" stroke="rgba(72, 1, 76, 1)" stroke-width="1.5"></path><path d="M369.08 236.67L524.96 257.15" stroke="rgba(72, 1, 76, 1)" stroke-width="1.5"></path><path d="M369.08 236.67L517.91 345.63" stroke="rgba(72, 1, 76, 1)" stroke-width="1.5"></path><path d="M369.08 236.67L666.13 233.72" stroke="rgba(72, 1, 76, 1)" stroke-width="1.5"></path><path d="M383.19 386L383.19 386" stroke="rgba(72, 1, 76, 1)" stroke-width="1.5"></path><path d="M383.19 386L517.91 345.63" stroke="rgba(72, 1, 76, 1)" stroke-width="1.5"></path><path d="M383.19 386L375.42 534.2" stroke="rgba(72, 1, 76, 1)" stroke-width="1.5"></path><path d="M375.42 534.2L375.42 534.2" stroke="rgba(72, 1, 76, 1)" stroke-width="1.5"></path><path d="M375.42 534.2L550.05 496.55" stroke="rgba(72, 1, 76, 1)" stroke-width="1.5"></path><path d="M524.96 257.15L524.96 257.15" stroke="rgba(72, 1, 76, 1)" stroke-width="1.5"></path><path d="M524.96 257.15L517.91 345.63" stroke="rgba(72, 1, 76, 1)" stroke-width="1.5"></path><path d="M524.96 257.15L666.13 233.72" stroke="rgba(72, 1, 76, 1)" stroke-width="1.5"></path><path d="M524.96 257.15L383.19 386" stroke="rgba(72, 1, 76, 1)" stroke-width="1.5"></path><path d="M517.91 345.63L517.91 345.63" stroke="rgba(72, 1, 76, 1)" stroke-width="1.5"></path><path d="M550.05 496.55L550.05 496.55" stroke="rgba(72, 1, 76, 1)" stroke-width="1.5"></path><path d="M550.05 496.55L638.3 501.34" stroke="rgba(72, 1, 76, 1)" stroke-width="1.5"></path><path d="M550.05 496.55L517.91 345.63" stroke="rgba(72, 1, 76, 1)" stroke-width="1.5"></path><path d="M550.05 496.55L383.19 386" stroke="rgba(72, 1, 76, 1)" stroke-width="1.5"></path><path d="M666.13 233.72L666.13 233.72" stroke="rgba(72, 1, 76, 1)" stroke-width="1.5"></path><path d="M666.13 233.72L848.56 221.06" stroke="rgba(72, 1, 76, 1)" stroke-width="1.5"></path><path d="M666.13 233.72L517.91 345.63" stroke="rgba(72, 1, 76, 1)" stroke-width="1.5"></path><path d="M666.13 233.72L801.93 377.34" stroke="rgba(72, 1, 76, 1)" stroke-width="1.5"></path><path d="M666.13 233.72L638.3 501.34" stroke="rgba(72, 1, 76, 1)" stroke-width="1.5"></path><path d="M638.3 501.34L638.3 501.34" stroke="rgba(72, 1, 76, 1)" stroke-width="1.5"></path><path d="M638.3 501.34L806.11 529.79" stroke="rgba(72, 1, 76, 1)" stroke-width="1.5"></path><path d="M638.3 501.34L517.91 345.63" stroke="rgba(72, 1, 76, 1)" stroke-width="1.5"></path><path d="M638.3 501.34L801.93 377.34" stroke="rgba(72, 1, 76, 1)" stroke-width="1.5"></path><path d="M638.3 501.34L375.42 534.2" stroke="rgba(72, 1, 76, 1)" stroke-width="1.5"></path><path d="M848.56 221.06L848.56 221.06" stroke="rgba(72, 1, 76, 1)" stroke-width="1.5"></path><path d="M848.56 221.06L1002.21 246.03" stroke="rgba(72, 1, 76, 1)" stroke-width="1.5"></path><path d="M848.56 221.06L801.93 377.34" stroke="rgba(72, 1, 76, 1)" stroke-width="1.5"></path><path d="M848.56 221.06L956.31 71.36" stroke="rgba(72, 1, 76, 1)" stroke-width="1.5"></path><path d="M848.56 221.06L999.99 371.34" stroke="rgba(72, 1, 76, 1)" stroke-width="1.5"></path><path d="M848.56 221.06L1141.96 205.14" stroke="rgba(72, 1, 76, 1)" stroke-width="1.5"></path><path d="M801.93 377.34L801.93 377.34" stroke="rgba(72, 1, 76, 1)" stroke-width="1.5"></path><path d="M801.93 377.34L806.11 529.79" stroke="rgba(72, 1, 76, 1)" stroke-width="1.5"></path><path d="M801.93 377.34L943.25 502.6" stroke="rgba(72, 1, 76, 1)" stroke-width="1.5"></path><path d="M806.11 529.79L806.11 529.79" stroke="rgba(72, 1, 76, 1)" stroke-width="1.5"></path><path d="M806.11 529.79L943.25 502.6" stroke="rgba(72, 1, 76, 1)" stroke-width="1.5"></path><path d="M806.11 529.79L999.99 371.34" stroke="rgba(72, 1, 76, 1)" stroke-width="1.5"></path><path d="M806.11 529.79L550.05 496.55" stroke="rgba(72, 1, 76, 1)" stroke-width="1.5"></path><path d="M1010.98 -62.11L1010.98 -62.11" stroke="rgba(72, 1, 76, 1)" stroke-width="1.5"></path><path d="M1010.98 -62.11L1096.38 -38.06" stroke="rgba(72, 1, 76, 1)" stroke-width="1.5"></path><path d="M1010.98 -62.11L956.31 71.36" stroke="rgba(72, 1, 76, 1)" stroke-width="1.5"></path><path d="M1010.98 -62.11L1142.85 64.61" stroke="rgba(72, 1, 76, 1)" stroke-width="1.5"></path><path d="M1010.98 -62.11L1240.97 110.73" stroke="rgba(72, 1, 76, 1)" stroke-width="1.5"></path><path d="M1010.98 -62.11L1141.96 205.14" stroke="rgba(72, 1, 76, 1)" stroke-width="1.5"></path><path d="M1010.98 -62.11L1002.21 246.03" stroke="rgba(72, 1, 76, 1)" stroke-width="1.5"></path><path d="M956.31 71.36L956.31 71.36" stroke="rgba(72, 1, 76, 1)" stroke-width="1.5"></path><path d="M956.31 71.36L1096.38 -38.06" stroke="rgba(72, 1, 76, 1)" stroke-width="1.5"></path><path d="M956.31 71.36L1002.21 246.03" stroke="rgba(72, 1, 76, 1)" stroke-width="1.5"></path><path d="M956.31 71.36L1142.85 64.61" stroke="rgba(72, 1, 76, 1)" stroke-width="1.5"></path><path d="M1002.21 246.03L1002.21 246.03" stroke="rgba(72, 1, 76, 1)" stroke-width="1.5"></path><path d="M1002.21 246.03L999.99 371.34" stroke="rgba(72, 1, 76, 1)" stroke-width="1.5"></path><path d="M1002.21 246.03L1141.96 205.14" stroke="rgba(72, 1, 76, 1)" stroke-width="1.5"></path><path d="M999.99 371.34L999.99 371.34" stroke="rgba(72, 1, 76, 1)" stroke-width="1.5"></path><path d="M999.99 371.34L1125.69 375.39" stroke="rgba(72, 1, 76, 1)" stroke-width="1.5"></path><path d="M999.99 371.34L943.25 502.6" stroke="rgba(72, 1, 76, 1)" stroke-width="1.5"></path><path d="M999.99 371.34L1111.97 508.28" stroke="rgba(72, 1, 76, 1)" stroke-width="1.5"></path><path d="M999.99 371.34L801.93 377.34" stroke="rgba(72, 1, 76, 1)" stroke-width="1.5"></path><path d="M943.25 502.6L943.25 502.6" stroke="rgba(72, 1, 76, 1)" stroke-width="1.5"></path><path d="M1096.38 -38.06L1096.38 -38.06" stroke="rgba(72, 1, 76, 1)" stroke-width="1.5"></path><path d="M1096.38 -38.06L1142.85 64.61" stroke="rgba(72, 1, 76, 1)" stroke-width="1.5"></path><path d="M1096.38 -38.06L1240.97 110.73" stroke="rgba(72, 1, 76, 1)" stroke-width="1.5"></path><path d="M1142.85 64.61L1142.85 64.61" stroke="rgba(72, 1, 76, 1)" stroke-width="1.5"></path><path d="M1142.85 64.61L1240.97 110.73" stroke="rgba(72, 1, 76, 1)" stroke-width="1.5"></path><path d="M1142.85 64.61L1141.96 205.14" stroke="rgba(72, 1, 76, 1)" stroke-width="1.5"></path><path d="M1141.96 205.14L1141.96 205.14" stroke="rgba(72, 1, 76, 1)" stroke-width="1.5"></path><path d="M1141.96 205.14L1268.5 235.51" stroke="rgba(72, 1, 76, 1)" stroke-width="1.5"></path><path d="M1141.96 205.14L1240.97 110.73" stroke="rgba(72, 1, 76, 1)" stroke-width="1.5"></path><path d="M1125.69 375.39L1125.69 375.39" stroke="rgba(72, 1, 76, 1)" stroke-width="1.5"></path><path d="M1125.69 375.39L1255.29 397.37" stroke="rgba(72, 1, 76, 1)" stroke-width="1.5"></path><path d="M1125.69 375.39L1111.97 508.28" stroke="rgba(72, 1, 76, 1)" stroke-width="1.5"></path><path d="M1125.69 375.39L1141.96 205.14" stroke="rgba(72, 1, 76, 1)" stroke-width="1.5"></path><path d="M1125.69 375.39L1002.21 246.03" stroke="rgba(72, 1, 76, 1)" stroke-width="1.5"></path><path d="M1125.69 375.39L1268.5 235.51" stroke="rgba(72, 1, 76, 1)" stroke-width="1.5"></path><path d="M1111.97 508.28L1111.97 508.28" stroke="rgba(72, 1, 76, 1)" stroke-width="1.5"></path><path d="M1111.97 508.28L1274.69 540.16" stroke="rgba(72, 1, 76, 1)" stroke-width="1.5"></path><path d="M1111.97 508.28L943.25 502.6" stroke="rgba(72, 1, 76, 1)" stroke-width="1.5"></path><path d="M1240.97 110.73L1240.97 110.73" stroke="rgba(72, 1, 76, 1)" stroke-width="1.5"></path><path d="M1240.97 110.73L1268.5 235.51" stroke="rgba(72, 1, 76, 1)" stroke-width="1.5"></path><path d="M1240.97 110.73L1392.66 76.86" stroke="rgba(72, 1, 76, 1)" stroke-width="1.5"></path><path d="M1268.5 235.51L1268.5 235.51" stroke="rgba(72, 1, 76, 1)" stroke-width="1.5"></path><path d="M1268.5 235.51L1394.55 235.1" stroke="rgba(72, 1, 76, 1)" stroke-width="1.5"></path><path d="M1268.5 235.51L1255.29 397.37" stroke="rgba(72, 1, 76, 1)" stroke-width="1.5"></path><path d="M1268.5 235.51L1392.66 76.86" stroke="rgba(72, 1, 76, 1)" stroke-width="1.5"></path><path d="M1255.29 397.37L1255.29 397.37" stroke="rgba(72, 1, 76, 1)" stroke-width="1.5"></path><path d="M1255.29 397.37L1274.69 540.16" stroke="rgba(72, 1, 76, 1)" stroke-width="1.5"></path><path d="M1274.69 540.16L1274.69 540.16" stroke="rgba(72, 1, 76, 1)" stroke-width="1.5"></path><path d="M1274.69 540.16L1125.69 375.39" stroke="rgba(72, 1, 76, 1)" stroke-width="1.5"></path><path d="M1274.69 540.16L1437.74 388.47" stroke="rgba(72, 1, 76, 1)" stroke-width="1.5"></path><path d="M1274.69 540.16L1268.5 235.51" stroke="rgba(72, 1, 76, 1)" stroke-width="1.5"></path><path d="M1274.69 540.16L1583.7 532.89" stroke="rgba(72, 1, 76, 1)" stroke-width="1.5"></path><path d="M1444.16 -111.52L1444.16 -111.52" stroke="rgba(72, 1, 76, 1)" stroke-width="1.5"></path><path d="M1444.16 -111.52L1539.43 -40.73" stroke="rgba(72, 1, 76, 1)" stroke-width="1.5"></path><path d="M1392.66 76.86L1392.66 76.86" stroke="rgba(72, 1, 76, 1)" stroke-width="1.5"></path><path d="M1392.66 76.86L1542.45 89.04" stroke="rgba(72, 1, 76, 1)" stroke-width="1.5"></path><path d="M1392.66 76.86L1394.55 235.1" stroke="rgba(72, 1, 76, 1)" stroke-width="1.5"></path><path d="M1392.66 76.86L1539.43 -40.73" stroke="rgba(72, 1, 76, 1)" stroke-width="1.5"></path><path d="M1392.66 76.86L1444.16 -111.52" stroke="rgba(72, 1, 76, 1)" stroke-width="1.5"></path><path d="M1394.55 235.1L1394.55 235.1" stroke="rgba(72, 1, 76, 1)" stroke-width="1.5"></path><path d="M1394.55 235.1L1437.74 388.47" stroke="rgba(72, 1, 76, 1)" stroke-width="1.5"></path><path d="M1394.55 235.1L1240.97 110.73" stroke="rgba(72, 1, 76, 1)" stroke-width="1.5"></path><path d="M1394.55 235.1L1600.03 242.86" stroke="rgba(72, 1, 76, 1)" stroke-width="1.5"></path><path d="M1394.55 235.1L1542.45 89.04" stroke="rgba(72, 1, 76, 1)" stroke-width="1.5"></path><path d="M1437.74 388.47L1437.74 388.47" stroke="rgba(72, 1, 76, 1)" stroke-width="1.5"></path><path d="M1437.74 388.47L1255.29 397.37" stroke="rgba(72, 1, 76, 1)" stroke-width="1.5"></path><path d="M1437.74 388.47L1583.7 532.89" stroke="rgba(72, 1, 76, 1)" stroke-width="1.5"></path><path d="M1539.43 -40.73L1539.43 -40.73" stroke="rgba(72, 1, 76, 1)" stroke-width="1.5"></path><path d="M1542.45 89.04L1542.45 89.04" stroke="rgba(72, 1, 76, 1)" stroke-width="1.5"></path><path d="M1542.45 89.04L1539.43 -40.73" stroke="rgba(72, 1, 76, 1)" stroke-width="1.5"></path><path d="M1542.45 89.04L1600.03 242.86" stroke="rgba(72, 1, 76, 1)" stroke-width="1.5"></path><path d="M1542.45 89.04L1444.16 -111.52" stroke="rgba(72, 1, 76, 1)" stroke-width="1.5"></path><path d="M1600.03 242.86L1600.03 242.86" stroke="rgba(72, 1, 76, 1)" stroke-width="1.5"></path><path d="M1600.03 242.86L1437.74 388.47" stroke="rgba(72, 1, 76, 1)" stroke-width="1.5"></path><path d="M1600.03 242.86L1392.66 76.86" stroke="rgba(72, 1, 76, 1)" stroke-width="1.5"></path><path d="M1600.03 242.86L1539.43 -40.73" stroke="rgba(72, 1, 76, 1)" stroke-width="1.5"></path><path d="M1600.03 242.86L1583.7 532.89" stroke="rgba(72, 1, 76, 1)" stroke-width="1.5"></path><path d="M1583.7 532.89L1583.7 532.89" stroke="rgba(72, 1, 76, 1)" stroke-width="1.5"></path><path d="M1583.7 532.89L1394.55 235.1" stroke="rgba(72, 1, 76, 1)" stroke-width="1.5"></path><circle r="5" cx="-73.36" cy="359.39" fill="rgba(72, 1, 76, 1)"></circle><circle r="5" cx="-47.97" cy="535.78" fill="rgba(72, 1, 76, 1)"></circle><circle r="5" cx="52.29" cy="349.33" fill="rgba(72, 1, 76, 1)"></circle><circle r="5" cx="87.64" cy="503.13" fill="rgba(72, 1, 76, 1)"></circle><circle r="5" cx="222.19" cy="366.66" fill="rgba(72, 1, 76, 1)"></circle><circle r="5" cx="192.13" cy="550.32" fill="rgba(72, 1, 76, 1)"></circle><circle r="5" cx="369.08" cy="236.67" fill="rgba(72, 1, 76, 1)"></circle><circle r="5" cx="383.19" cy="386" fill="rgba(72, 1, 76, 1)"></circle><circle r="5" cx="375.42" cy="534.2" fill="rgba(72, 1, 76, 1)"></circle><circle r="5" cx="524.96" cy="257.15" fill="rgba(72, 1, 76, 1)"></circle><circle r="5" cx="517.91" cy="345.63" fill="rgba(72, 1, 76, 1)"></circle><circle r="5" cx="550.05" cy="496.55" fill="rgba(72, 1, 76, 1)"></circle><circle r="5" cx="666.13" cy="233.72" fill="rgba(72, 1, 76, 1)"></circle><circle r="5" cx="638.3" cy="501.34" fill="rgba(72, 1, 76, 1)"></circle><circle r="5" cx="848.56" cy="221.06" fill="rgba(72, 1, 76, 1)"></circle><circle r="5" cx="801.93" cy="377.34" fill="rgba(72, 1, 76, 1)"></circle><circle r="5" cx="806.11" cy="529.79" fill="rgba(72, 1, 76, 1)"></circle><circle r="5" cx="1010.98" cy="-62.11" fill="rgba(72, 1, 76, 1)"></circle><circle r="5" cx="956.31" cy="71.36" fill="rgba(72, 1, 76, 1)"></circle><circle r="5" cx="1002.21" cy="246.03" fill="rgba(72, 1, 76, 1)"></circle><circle r="5" cx="999.99" cy="371.34" fill="rgba(72, 1, 76, 1)"></circle><circle r="5" cx="943.25" cy="502.6" fill="rgba(72, 1, 76, 1)"></circle><circle r="5" cx="1096.38" cy="-38.06" fill="rgba(72, 1, 76, 1)"></circle><circle r="5" cx="1142.85" cy="64.61" fill="rgba(72, 1, 76, 1)"></circle><circle r="5" cx="1141.96" cy="205.14" fill="rgba(72, 1, 76, 1)"></circle><circle r="5" cx="1125.69" cy="375.39" fill="rgba(72, 1, 76, 1)"></circle><circle r="5" cx="1111.97" cy="508.28" fill="rgba(72, 1, 76, 1)"></circle><circle r="5" cx="1240.97" cy="110.73" fill="rgba(72, 1, 76, 1)"></circle><circle r="5" cx="1268.5" cy="235.51" fill="rgba(72, 1, 76, 1)"></circle><circle r="5" cx="1255.29" cy="397.37" fill="rgba(72, 1, 76, 1)"></circle><circle r="5" cx="1274.69" cy="540.16" fill="rgba(72, 1, 76, 1)"></circle><circle r="5" cx="1444.16" cy="-111.52" fill="rgba(72, 1, 76, 1)"></circle><circle r="5" cx="1392.66" cy="76.86" fill="rgba(72, 1, 76, 1)"></circle><circle r="5" cx="1394.55" cy="235.1" fill="rgba(72, 1, 76, 1)"></circle><circle r="5" cx="1437.74" cy="388.47" fill="rgba(72, 1, 76, 1)"></circle><circle r="5" cx="1539.43" cy="-40.73" fill="rgba(72, 1, 76, 1)"></circle><circle r="5" cx="1542.45" cy="89.04" fill="rgba(72, 1, 76, 1)"></circle><circle r="5" cx="1600.03" cy="242.86" fill="rgba(72, 1, 76, 1)"></circle><circle r="5" cx="1583.7" cy="532.89" fill="rgba(72, 1, 76, 1)"></circle><path d="M529.45 351.67L529.45 351.67" stroke="hsl(292.29999999999995, 97.1%, 34.9%)" stroke-width="1.5"></path><path d="M529.45 351.67L696.85 355.83" stroke="hsl(292.29999999999995, 97.1%, 34.9%)" stroke-width="1.5"></path><path d="M529.45 351.67L361.34 392.65" stroke="hsl(292.29999999999995, 97.1%, 34.9%)" stroke-width="1.5"></path><path d="M529.45 351.67L520.91 548.25" stroke="hsl(292.29999999999995, 97.1%, 34.9%)" stroke-width="1.5"></path><path d="M529.45 351.67L659.23 518.66" stroke="hsl(292.29999999999995, 97.1%, 34.9%)" stroke-width="1.5"></path><path d="M529.45 351.67L818.97 394.63" stroke="hsl(292.29999999999995, 97.1%, 34.9%)" stroke-width="1.5"></path><path d="M529.45 351.67L215.6 377.94" stroke="hsl(292.29999999999995, 97.1%, 34.9%)" stroke-width="1.5"></path><path d="M696.85 355.83L696.85 355.83" stroke="hsl(292.29999999999995, 97.1%, 34.9%)" stroke-width="1.5"></path><path d="M696.85 355.83L818.97 394.63" stroke="hsl(292.29999999999995, 97.1%, 34.9%)" stroke-width="1.5"></path><path d="M696.85 355.83L659.23 518.66" stroke="hsl(292.29999999999995, 97.1%, 34.9%)" stroke-width="1.5"></path><path d="M846.45 223.44L846.45 223.44" stroke="hsl(292.29999999999995, 97.1%, 34.9%)" stroke-width="1.5"></path><path d="M846.45 223.44L982.19 241.71" stroke="hsl(292.29999999999995, 97.1%, 34.9%)" stroke-width="1.5"></path><path d="M846.45 223.44L818.97 394.63" stroke="hsl(292.29999999999995, 97.1%, 34.9%)" stroke-width="1.5"></path><path d="M846.45 223.44L696.85 355.83" stroke="hsl(292.29999999999995, 97.1%, 34.9%)" stroke-width="1.5"></path><path d="M846.45 223.44L989.48 372.21" stroke="hsl(292.29999999999995, 97.1%, 34.9%)" stroke-width="1.5"></path><path d="M846.45 223.44L1144.02 202.64" stroke="hsl(292.29999999999995, 97.1%, 34.9%)" stroke-width="1.5"></path><path d="M1304.86 91.61L1304.86 91.61" stroke="hsl(292.29999999999995, 97.1%, 34.9%)" stroke-width="1.5"></path><path d="M1304.86 91.61L1401.76 61.19" stroke="hsl(292.29999999999995, 97.1%, 34.9%)" stroke-width="1.5"></path><path d="M1304.86 91.61L1158.6 69.73" stroke="hsl(292.29999999999995, 97.1%, 34.9%)" stroke-width="1.5"></path><path d="M1304.86 91.61L1421.4 191.82" stroke="hsl(292.29999999999995, 97.1%, 34.9%)" stroke-width="1.5"></path><path d="M1304.86 91.61L1427.19 -54.66" stroke="hsl(292.29999999999995, 97.1%, 34.9%)" stroke-width="1.5"></path><path d="M1304.86 91.61L1144.02 202.64" stroke="hsl(292.29999999999995, 97.1%, 34.9%)" stroke-width="1.5"></path><path d="M1304.86 91.61L1553.25 226.74" stroke="hsl(292.29999999999995, 97.1%, 34.9%)" stroke-width="1.5"></path><path d="M1427.19 -54.66L1427.19 -54.66" stroke="hsl(292.29999999999995, 97.1%, 34.9%)" stroke-width="1.5"></path><path d="M1427.19 -54.66L1401.76 61.19" stroke="hsl(292.29999999999995, 97.1%, 34.9%)" stroke-width="1.5"></path><path d="M1427.19 -54.66L1555.33 -95.28" stroke="hsl(292.29999999999995, 97.1%, 34.9%)" stroke-width="1.5"></path><path d="M1427.19 -54.66L1592.49 89.02" stroke="hsl(292.29999999999995, 97.1%, 34.9%)" stroke-width="1.5"></path><path d="M1427.19 -54.66L1421.4 191.82" stroke="hsl(292.29999999999995, 97.1%, 34.9%)" stroke-width="1.5"></path><path d="M1427.19 -54.66L1158.6 69.73" stroke="hsl(292.29999999999995, 97.1%, 34.9%)" stroke-width="1.5"></path><path d="M1401.76 61.19L1401.76 61.19" stroke="hsl(292.29999999999995, 97.1%, 34.9%)" stroke-width="1.5"></path><path d="M1555.33 -95.28L1555.33 -95.28" stroke="hsl(292.29999999999995, 97.1%, 34.9%)" stroke-width="1.5"></path><path d="M1555.33 -95.28L1592.49 89.02" stroke="hsl(292.29999999999995, 97.1%, 34.9%)" stroke-width="1.5"></path><path d="M1555.33 -95.28L1401.76 61.19" stroke="hsl(292.29999999999995, 97.1%, 34.9%)" stroke-width="1.5"></path><path d="M1555.33 -95.28L1304.86 91.61" stroke="hsl(292.29999999999995, 97.1%, 34.9%)" stroke-width="1.5"></path><path d="M1555.33 -95.28L1421.4 191.82" stroke="hsl(292.29999999999995, 97.1%, 34.9%)" stroke-width="1.5"></path><path d="M-54.63 376.08L-54.63 376.08" stroke="hsl(292.29999999999995, 97.1%, 34.9%)" stroke-width="1.5"></path><path d="M-54.63 376.08L88.13 409.19" stroke="hsl(292.29999999999995, 97.1%, 34.9%)" stroke-width="1.5"></path><path d="M-54.63 376.08L-77.08 550.41" stroke="hsl(292.29999999999995, 97.1%, 34.9%)" stroke-width="1.5"></path><path d="M-54.63 376.08L52.42 537.57" stroke="hsl(292.29999999999995, 97.1%, 34.9%)" stroke-width="1.5"></path><path d="M-77.08 550.41L-77.08 550.41" stroke="hsl(292.29999999999995, 97.1%, 34.9%)" stroke-width="1.5"></path><path d="M-77.08 550.41L52.42 537.57" stroke="hsl(292.29999999999995, 97.1%, 34.9%)" stroke-width="1.5"></path><path d="M-77.08 550.41L88.13 409.19" stroke="hsl(292.29999999999995, 97.1%, 34.9%)" stroke-width="1.5"></path><path d="M-77.08 550.41L239.43 490.59" stroke="hsl(292.29999999999995, 97.1%, 34.9%)" stroke-width="1.5"></path><path d="M88.13 409.19L88.13 409.19" stroke="hsl(292.29999999999995, 97.1%, 34.9%)" stroke-width="1.5"></path><path d="M88.13 409.19L215.6 377.94" stroke="hsl(292.29999999999995, 97.1%, 34.9%)" stroke-width="1.5"></path><path d="M52.42 537.57L52.42 537.57" stroke="hsl(292.29999999999995, 97.1%, 34.9%)" stroke-width="1.5"></path><path d="M52.42 537.57L88.13 409.19" stroke="hsl(292.29999999999995, 97.1%, 34.9%)" stroke-width="1.5"></path><path d="M52.42 537.57L239.43 490.59" stroke="hsl(292.29999999999995, 97.1%, 34.9%)" stroke-width="1.5"></path><path d="M52.42 537.57L215.6 377.94" stroke="hsl(292.29999999999995, 97.1%, 34.9%)" stroke-width="1.5"></path><path d="M52.42 537.57L361.34 392.65" stroke="hsl(292.29999999999995, 97.1%, 34.9%)" stroke-width="1.5"></path><path d="M215.6 377.94L215.6 377.94" stroke="hsl(292.29999999999995, 97.1%, 34.9%)" stroke-width="1.5"></path><path d="M215.6 377.94L239.43 490.59" stroke="hsl(292.29999999999995, 97.1%, 34.9%)" stroke-width="1.5"></path><path d="M215.6 377.94L361.34 392.65" stroke="hsl(292.29999999999995, 97.1%, 34.9%)" stroke-width="1.5"></path><path d="M239.43 490.59L239.43 490.59" stroke="hsl(292.29999999999995, 97.1%, 34.9%)" stroke-width="1.5"></path><path d="M239.43 490.59L361.34 392.65" stroke="hsl(292.29999999999995, 97.1%, 34.9%)" stroke-width="1.5"></path><path d="M239.43 490.59L88.13 409.19" stroke="hsl(292.29999999999995, 97.1%, 34.9%)" stroke-width="1.5"></path><path d="M361.34 392.65L361.34 392.65" stroke="hsl(292.29999999999995, 97.1%, 34.9%)" stroke-width="1.5"></path><path d="M361.34 392.65L520.91 548.25" stroke="hsl(292.29999999999995, 97.1%, 34.9%)" stroke-width="1.5"></path><path d="M361.34 392.65L88.13 409.19" stroke="hsl(292.29999999999995, 97.1%, 34.9%)" stroke-width="1.5"></path><path d="M520.91 548.25L520.91 548.25" stroke="hsl(292.29999999999995, 97.1%, 34.9%)" stroke-width="1.5"></path><path d="M520.91 548.25L659.23 518.66" stroke="hsl(292.29999999999995, 97.1%, 34.9%)" stroke-width="1.5"></path><path d="M520.91 548.25L696.85 355.83" stroke="hsl(292.29999999999995, 97.1%, 34.9%)" stroke-width="1.5"></path><path d="M520.91 548.25L807.11 530.91" stroke="hsl(292.29999999999995, 97.1%, 34.9%)" stroke-width="1.5"></path><path d="M520.91 548.25L239.43 490.59" stroke="hsl(292.29999999999995, 97.1%, 34.9%)" stroke-width="1.5"></path><path d="M659.23 518.66L659.23 518.66" stroke="hsl(292.29999999999995, 97.1%, 34.9%)" stroke-width="1.5"></path><path d="M659.23 518.66L807.11 530.91" stroke="hsl(292.29999999999995, 97.1%, 34.9%)" stroke-width="1.5"></path><path d="M818.97 394.63L818.97 394.63" stroke="hsl(292.29999999999995, 97.1%, 34.9%)" stroke-width="1.5"></path><path d="M818.97 394.63L807.11 530.91" stroke="hsl(292.29999999999995, 97.1%, 34.9%)" stroke-width="1.5"></path><path d="M818.97 394.63L989.48 372.21" stroke="hsl(292.29999999999995, 97.1%, 34.9%)" stroke-width="1.5"></path><path d="M807.11 530.91L807.11 530.91" stroke="hsl(292.29999999999995, 97.1%, 34.9%)" stroke-width="1.5"></path><path d="M982.19 241.71L982.19 241.71" stroke="hsl(292.29999999999995, 97.1%, 34.9%)" stroke-width="1.5"></path><path d="M982.19 241.71L989.48 372.21" stroke="hsl(292.29999999999995, 97.1%, 34.9%)" stroke-width="1.5"></path><path d="M982.19 241.71L1144.02 202.64" stroke="hsl(292.29999999999995, 97.1%, 34.9%)" stroke-width="1.5"></path><path d="M982.19 241.71L1100.88 398.36" stroke="hsl(292.29999999999995, 97.1%, 34.9%)" stroke-width="1.5"></path><path d="M982.19 241.71L818.97 394.63" stroke="hsl(292.29999999999995, 97.1%, 34.9%)" stroke-width="1.5"></path><path d="M989.48 372.21L989.48 372.21" stroke="hsl(292.29999999999995, 97.1%, 34.9%)" stroke-width="1.5"></path><path d="M989.48 372.21L1100.88 398.36" stroke="hsl(292.29999999999995, 97.1%, 34.9%)" stroke-width="1.5"></path><path d="M989.48 372.21L1007.67 551.9" stroke="hsl(292.29999999999995, 97.1%, 34.9%)" stroke-width="1.5"></path><path d="M1007.67 551.9L1007.67 551.9" stroke="hsl(292.29999999999995, 97.1%, 34.9%)" stroke-width="1.5"></path><path d="M1007.67 551.9L1150.57 496.21" stroke="hsl(292.29999999999995, 97.1%, 34.9%)" stroke-width="1.5"></path><path d="M1007.67 551.9L1100.88 398.36" stroke="hsl(292.29999999999995, 97.1%, 34.9%)" stroke-width="1.5"></path><path d="M1158.6 69.73L1158.6 69.73" stroke="hsl(292.29999999999995, 97.1%, 34.9%)" stroke-width="1.5"></path><path d="M1158.6 69.73L1144.02 202.64" stroke="hsl(292.29999999999995, 97.1%, 34.9%)" stroke-width="1.5"></path><path d="M1158.6 69.73L1401.76 61.19" stroke="hsl(292.29999999999995, 97.1%, 34.9%)" stroke-width="1.5"></path><path d="M1144.02 202.64L1144.02 202.64" stroke="hsl(292.29999999999995, 97.1%, 34.9%)" stroke-width="1.5"></path><path d="M1100.88 398.36L1100.88 398.36" stroke="hsl(292.29999999999995, 97.1%, 34.9%)" stroke-width="1.5"></path><path d="M1100.88 398.36L1150.57 496.21" stroke="hsl(292.29999999999995, 97.1%, 34.9%)" stroke-width="1.5"></path><path d="M1100.88 398.36L1261.73 409.31" stroke="hsl(292.29999999999995, 97.1%, 34.9%)" stroke-width="1.5"></path><path d="M1100.88 398.36L1144.02 202.64" stroke="hsl(292.29999999999995, 97.1%, 34.9%)" stroke-width="1.5"></path><path d="M1150.57 496.21L1150.57 496.21" stroke="hsl(292.29999999999995, 97.1%, 34.9%)" stroke-width="1.5"></path><path d="M1150.57 496.21L1261.73 409.31" stroke="hsl(292.29999999999995, 97.1%, 34.9%)" stroke-width="1.5"></path><path d="M1150.57 496.21L1306.2 537.64" stroke="hsl(292.29999999999995, 97.1%, 34.9%)" stroke-width="1.5"></path><path d="M1150.57 496.21L989.48 372.21" stroke="hsl(292.29999999999995, 97.1%, 34.9%)" stroke-width="1.5"></path><path d="M1261.73 409.31L1261.73 409.31" stroke="hsl(292.29999999999995, 97.1%, 34.9%)" stroke-width="1.5"></path><path d="M1261.73 409.31L1390.23 382.6" stroke="hsl(292.29999999999995, 97.1%, 34.9%)" stroke-width="1.5"></path><path d="M1261.73 409.31L1306.2 537.64" stroke="hsl(292.29999999999995, 97.1%, 34.9%)" stroke-width="1.5"></path><path d="M1306.2 537.64L1306.2 537.64" stroke="hsl(292.29999999999995, 97.1%, 34.9%)" stroke-width="1.5"></path><path d="M1306.2 537.64L1435.08 555.59" stroke="hsl(292.29999999999995, 97.1%, 34.9%)" stroke-width="1.5"></path><path d="M1306.2 537.64L1390.23 382.6" stroke="hsl(292.29999999999995, 97.1%, 34.9%)" stroke-width="1.5"></path><path d="M1306.2 537.64L1100.88 398.36" stroke="hsl(292.29999999999995, 97.1%, 34.9%)" stroke-width="1.5"></path><path d="M1306.2 537.64L1599.48 519.03" stroke="hsl(292.29999999999995, 97.1%, 34.9%)" stroke-width="1.5"></path><path d="M1421.4 191.82L1421.4 191.82" stroke="hsl(292.29999999999995, 97.1%, 34.9%)" stroke-width="1.5"></path><path d="M1421.4 191.82L1401.76 61.19" stroke="hsl(292.29999999999995, 97.1%, 34.9%)" stroke-width="1.5"></path><path d="M1421.4 191.82L1553.25 226.74" stroke="hsl(292.29999999999995, 97.1%, 34.9%)" stroke-width="1.5"></path><path d="M1421.4 191.82L1390.23 382.6" stroke="hsl(292.29999999999995, 97.1%, 34.9%)" stroke-width="1.5"></path><path d="M1421.4 191.82L1592.49 89.02" stroke="hsl(292.29999999999995, 97.1%, 34.9%)" stroke-width="1.5"></path><path d="M1390.23 382.6L1390.23 382.6" stroke="hsl(292.29999999999995, 97.1%, 34.9%)" stroke-width="1.5"></path><path d="M1435.08 555.59L1435.08 555.59" stroke="hsl(292.29999999999995, 97.1%, 34.9%)" stroke-width="1.5"></path><path d="M1435.08 555.59L1599.48 519.03" stroke="hsl(292.29999999999995, 97.1%, 34.9%)" stroke-width="1.5"></path><path d="M1435.08 555.59L1390.23 382.6" stroke="hsl(292.29999999999995, 97.1%, 34.9%)" stroke-width="1.5"></path><path d="M1435.08 555.59L1590.47 402.06" stroke="hsl(292.29999999999995, 97.1%, 34.9%)" stroke-width="1.5"></path><path d="M1435.08 555.59L1261.73 409.31" stroke="hsl(292.29999999999995, 97.1%, 34.9%)" stroke-width="1.5"></path><path d="M1435.08 555.59L1150.57 496.21" stroke="hsl(292.29999999999995, 97.1%, 34.9%)" stroke-width="1.5"></path><path d="M1592.49 89.02L1592.49 89.02" stroke="hsl(292.29999999999995, 97.1%, 34.9%)" stroke-width="1.5"></path><path d="M1592.49 89.02L1553.25 226.74" stroke="hsl(292.29999999999995, 97.1%, 34.9%)" stroke-width="1.5"></path><path d="M1592.49 89.02L1401.76 61.19" stroke="hsl(292.29999999999995, 97.1%, 34.9%)" stroke-width="1.5"></path><path d="M1592.49 89.02L1304.86 91.61" stroke="hsl(292.29999999999995, 97.1%, 34.9%)" stroke-width="1.5"></path><path d="M1553.25 226.74L1553.25 226.74" stroke="hsl(292.29999999999995, 97.1%, 34.9%)" stroke-width="1.5"></path><path d="M1553.25 226.74L1590.47 402.06" stroke="hsl(292.29999999999995, 97.1%, 34.9%)" stroke-width="1.5"></path><path d="M1553.25 226.74L1401.76 61.19" stroke="hsl(292.29999999999995, 97.1%, 34.9%)" stroke-width="1.5"></path><path d="M1590.47 402.06L1590.47 402.06" stroke="hsl(292.29999999999995, 97.1%, 34.9%)" stroke-width="1.5"></path><path d="M1590.47 402.06L1599.48 519.03" stroke="hsl(292.29999999999995, 97.1%, 34.9%)" stroke-width="1.5"></path><path d="M1599.48 519.03L1599.48 519.03" stroke="hsl(292.29999999999995, 97.1%, 34.9%)" stroke-width="1.5"></path><path d="M1599.48 519.03L1390.23 382.6" stroke="hsl(292.29999999999995, 97.1%, 34.9%)" stroke-width="1.5"></path><path d="M1599.48 519.03L1553.25 226.74" stroke="hsl(292.29999999999995, 97.1%, 34.9%)" stroke-width="1.5"></path><path d="M1599.48 519.03L1261.73 409.31" stroke="hsl(292.29999999999995, 97.1%, 34.9%)" stroke-width="1.5"></path><circle r="25" cx="529.45" cy="351.67" fill="url(&quot;#SvgjsRadialGradient1065&quot;)"></circle><circle r="25" cx="696.85" cy="355.83" fill="url(&quot;#SvgjsRadialGradient1065&quot;)"></circle><circle r="25" cx="846.45" cy="223.44" fill="url(&quot;#SvgjsRadialGradient1065&quot;)"></circle><circle r="25" cx="1304.86" cy="91.61" fill="url(&quot;#SvgjsRadialGradient1065&quot;)"></circle><circle r="25" cx="1427.19" cy="-54.66" fill="url(&quot;#SvgjsRadialGradient1065&quot;)"></circle><circle r="25" cx="1401.76" cy="61.19" fill="url(&quot;#SvgjsRadialGradient1065&quot;)"></circle><circle r="25" cx="1555.33" cy="-95.28" fill="url(&quot;#SvgjsRadialGradient1065&quot;)"></circle><circle r="5" cx="-54.63" cy="376.08" fill="#bb81c3"></circle><circle r="5" cx="-77.08" cy="550.41" fill="#bb81c3"></circle><circle r="5" cx="88.13" cy="409.19" fill="#bb81c3"></circle><circle r="5" cx="52.42" cy="537.57" fill="#bb81c3"></circle><circle r="5" cx="215.6" cy="377.94" fill="#bb81c3"></circle><circle r="5" cx="239.43" cy="490.59" fill="#bb81c3"></circle><circle r="5" cx="361.34" cy="392.65" fill="#bb81c3"></circle><circle r="5" cx="520.91" cy="548.25" fill="#bb81c3"></circle><circle r="5" cx="659.23" cy="518.66" fill="#bb81c3"></circle><circle r="5" cx="818.97" cy="394.63" fill="#bb81c3"></circle><circle r="5" cx="807.11" cy="530.91" fill="#bb81c3"></circle><circle r="5" cx="982.19" cy="241.71" fill="#bb81c3"></circle><circle r="5" cx="989.48" cy="372.21" fill="#bb81c3"></circle><circle r="5" cx="1007.67" cy="551.9" fill="#bb81c3"></circle><circle r="5" cx="1158.6" cy="69.73" fill="#bb81c3"></circle><circle r="5" cx="1144.02" cy="202.64" fill="#bb81c3"></circle><circle r="5" cx="1100.88" cy="398.36" fill="#bb81c3"></circle><circle r="5" cx="1150.57" cy="496.21" fill="#bb81c3"></circle><circle r="5" cx="1261.73" cy="409.31" fill="#bb81c3"></circle><circle r="5" cx="1306.2" cy="537.64" fill="#bb81c3"></circle><circle r="5" cx="1421.4" cy="191.82" fill="#bb81c3"></circle><circle r="5" cx="1390.23" cy="382.6" fill="#bb81c3"></circle><circle r="5" cx="1435.08" cy="555.59" fill="#bb81c3"></circle><circle r="5" cx="1592.49" cy="89.02" fill="#bb81c3"></circle><circle r="5" cx="1553.25" cy="226.74" fill="#bb81c3"></circle><circle r="5" cx="1590.47" cy="402.06" fill="#bb81c3"></circle><circle r="5" cx="1599.48" cy="519.03" fill="#bb81c3"></circle></g><defs><mask id="SvgjsMask1064"><rect width="1440" height="390" fill="#ffffff"></rect></mask><radialGradient id="SvgjsRadialGradient1065"><stop stop-color="#ffffff" offset="0.1"></stop><stop stop-color="rgba(118, 2, 135, 1)" offset="0.2"></stop><stop stop-color="rgba(118, 2, 135, 0)" offset="1"></stop></radialGradient></defs></svg>